<svg width="359.04" height="74.592" viewBox="0 0 94.996 19.736" xmlns="http://www.w3.org/2000/svg"><path style="font-size:96px;line-height:1.25;font-family:'Poiret One';-inkscape-font-specification:'Poiret One';white-space:pre;stroke-width:.999999" d="M37.44 0C27.2 0 18.4 3.68 11.04 11.04 3.68 18.334 0 27.071 0 37.247c0 6.464 1.632 12.576 4.896 18.336 3.328 5.696 7.84 10.272 13.536 13.728 5.696 3.457 11.84 5.184 18.431 5.184h1.057c6.848 0 13.184-1.793 19.008-5.377v-3.55c-6.016 4.095-12.513 6.144-19.489 6.144-9.408 0-17.471-3.394-24.191-10.178-6.72-6.784-10.08-14.879-10.08-24.287 0-9.472 3.36-17.567 10.08-24.287 6.72-6.784 14.783-10.178 24.191-10.178 6.976 0 13.473 2.049 19.489 6.145V5.377C50.784 1.793 44.288 0 37.439 0Zm102.048 12.768c-4.544 0-8.417 1.537-11.617 4.609-3.2 3.008-4.799 6.88-4.799 11.615V73.44h3.073V56.928h13.439V54.24h-13.44V28.992c0-3.904 1.28-7.135 3.84-9.695 2.624-2.56 5.792-3.842 9.504-3.842zm54.336.095v44.93c0 4.736 1.601 8.639 4.801 11.71 3.2 3.009 7.071 4.513 11.615 4.513v-2.688c-3.712 0-6.88-1.28-9.504-3.84-2.56-2.56-3.84-5.791-3.84-9.695v-24.77h13.249v-2.687h-13.249V12.863Zm107.809 1.729c-1.856 0-2.785.864-2.785 2.592 0 1.728.929 2.591 2.785 2.591s2.783-.863 2.783-2.591c0-1.728-.927-2.592-2.783-2.592zM88.896 29.184c-6.272 0-11.648 2.24-16.128 6.72-4.48 4.416-6.72 9.728-6.72 15.936s2.24 11.551 6.72 16.031c4.48 4.416 9.856 6.625 16.128 6.625 4.096 0 7.936-1.056 11.52-3.168 3.584-2.112 6.272-4.993 8.064-8.64v10.751h3.073V30.24h-3.073v10.848c-1.472-3.584-4.097-6.465-7.873-8.64-3.712-2.177-7.615-3.264-11.71-3.264zm193.153 0c-3.008 0-5.728.705-8.16 2.113-2.432 1.408-4.225 3.199-5.377 5.375V30.24h-3.073v43.2h3.073v-28.8c0-3.391 1.28-6.367 3.84-8.927 2.624-2.56 5.633-3.842 9.025-3.842 3.392 0 6.494 1.409 9.31 4.225v-3.84c-2.752-2.048-5.63-3.072-8.638-3.072zm54.336 0c-6.272 0-11.65 2.24-16.13 6.72-4.48 4.416-6.72 9.728-6.72 15.936s2.24 11.551 6.72 16.031c4.48 4.416 9.858 6.625 16.13 6.625 4.096 0 7.935-1.056 11.52-3.168 3.583-2.112 6.272-4.993 8.064-8.64v10.751h3.072V30.24h-3.072v10.848c-1.472-3.584-4.097-6.465-7.873-8.64-3.712-2.177-7.615-3.264-11.711-3.264zm-167.713.095c-6.592 0-12.128 2.241-16.608 6.721-4.48 4.416-6.72 9.664-6.72 15.744s2.24 11.423 6.72 16.031c4.544 4.544 9.856 6.817 15.936 6.817h.863c6.464 0 11.97-2.496 16.514-7.488v-4.897a23.017 23.017 0 0 1-7.584 7.105c-3.008 1.728-6.433 2.592-10.273 2.592s-7.84-1.664-12-4.992l30.144-29.76c-4.736-5.248-10.4-7.873-16.992-7.873zm70.656 0c-6.592 0-12.127 2.241-16.607 6.721-4.48 4.416-6.721 9.664-6.721 15.744s2.24 11.423 6.72 16.031c4.545 4.544 9.856 6.817 15.936 6.817h.864c6.464 0 11.967-2.496 16.511-7.488v-4.897a23.017 23.017 0 0 1-7.584 7.106c-3.008 1.727-6.431 2.591-10.271 2.591-3.84 0-7.84-1.664-12-4.992l30.144-29.76c-4.736-5.248-10.4-7.873-16.992-7.873zm60.768 1.057v43.103h3.072V30.336ZM88.992 31.87c5.376 0 9.984 1.985 13.824 5.953 3.904 3.968 5.856 8.672 5.856 14.112 0 5.376-1.92 10.047-5.76 14.015-3.84 3.904-8.48 5.858-13.92 5.858-5.376 0-10.047-1.954-14.015-5.858-3.904-3.968-5.858-8.64-5.858-14.015 0-5.376 1.954-10.048 5.858-14.016 3.968-4.032 8.64-6.049 14.015-6.049zm247.488 0c5.376 0 9.985 1.985 13.825 5.953 3.904 3.968 5.855 8.672 5.855 14.112 0 5.376-1.92 10.047-5.76 14.015-3.84 3.904-8.48 5.858-13.92 5.858-5.376 0-10.047-1.954-14.015-5.858-3.904-3.968-5.858-8.64-5.858-14.015 0-5.376 1.954-10.048 5.858-14.016 3.968-4.032 8.64-6.049 14.015-6.049zm-168.671.098c5.12 0 9.662 1.727 13.63 5.183l-27.935 27.744c-3.392-3.84-5.088-8.32-5.088-13.44 0-5.12 1.951-9.632 5.855-13.536 3.968-3.968 8.482-5.951 13.538-5.951zm70.656 0c5.12 0 9.663 1.727 13.63 5.183L224.16 64.896c-3.392-3.84-5.088-8.32-5.088-13.44 0-5.12 1.952-9.632 5.856-13.536 3.968-3.968 8.48-5.951 13.537-5.951z" transform="scale(.26458)"/></svg>