<svg width="460.185" height="97.824" viewBox="0 0 121.757 25.883" xmlns="http://www.w3.org/2000/svg"><path style="font-size:96px;line-height:1.25;font-family:Comfortaa;-inkscape-font-specification:Comfortaa;white-space:pre;stroke-width:.999999" d="M311.424 0c-1.088 0-1.984.353-2.688 1.057-.704.64-1.056 1.535-1.056 2.687V31.97c-2.112-3.008-4.896-5.41-8.352-7.201-3.456-1.856-7.327-2.784-11.615-2.784-4.928 0-9.344 1.183-13.248 3.551-3.904 2.304-7.009 5.472-9.313 9.504-2.24 4.032-3.361 8.577-3.361 13.633 0 5.12 1.153 9.696 3.457 13.728 2.368 4.032 5.568 7.232 9.6 9.6 4.032 2.304 8.576 3.455 13.632 3.455 4.992 0 9.472-1.151 13.44-3.455 4.032-2.304 7.2-5.44 9.504-9.408 2.368-4.032 3.616-8.543 3.744-13.535V3.744c0-1.152-.353-2.047-1.057-2.687-.704-.704-1.6-1.057-2.687-1.057Zm53.59 10.832c-.734 0-1.343.24-1.823.72s-.718 1.087-.718 1.821v7.623c0 .734.238 1.342.718 1.822s1.089.72 1.823.72 1.34-.24 1.82-.72.72-1.088.72-1.822v-7.623c0-.734-.24-1.34-.72-1.82s-1.086-.721-1.82-.721zm-24.565 10.164c-.677 0-1.27.256-1.78.764a2.483 2.483 0 0 0-.76 1.82c0 .706.253 1.312.76 1.82l5.423 5.338c.452.452 1.03.676 1.736.676s1.312-.224 1.82-.676c.509-.508.764-1.101.764-1.779 0-.678-.255-1.271-.764-1.78l-5.42-5.42c-.508-.507-1.101-.763-1.779-.763zm49.086 0a2.49 2.49 0 0 0-1.822.764l-5.336 5.42c-.508.508-.762 1.101-.762 1.779 0 .678.254 1.271.762 1.78.508.507 1.102.761 1.78.761.677 0 1.268-.254 1.777-.762l5.421-5.422c.509-.508.762-1.101.762-1.779 0-.678-.253-1.27-.762-1.777-.508-.508-1.114-.764-1.82-.764zm-195.902.893c-3.712 0-7.106.895-10.178 2.687-2.436 1.452-4.516 3.345-6.238 5.678V26.11c0-1.152-.321-2.047-.961-2.687-.64-.64-1.536-.96-2.688-.96-1.152 0-2.047.32-2.687.96-.64.64-.961 1.535-.961 2.687v45.217c0 1.152.32 2.048.96 2.688.64.64 1.536.96 2.688.96 1.152 0 2.048-.32 2.688-.96.64-.64.96-1.536.96-2.688V42.623c0-3.008.8-5.6 2.4-7.775 1.663-2.176 3.872-3.775 6.624-4.8 2.816-1.087 6.016-1.472 9.6-1.152 1.088.064 2.049.128 2.88.192.897.064 1.632-.065 2.208-.385.64-.32 1.087-.96 1.343-1.92.384-1.6-.224-2.814-1.824-3.646-1.6-.832-3.87-1.248-6.814-1.248zm-168.48.095c-4.929 0-9.281 1.151-13.057 3.455-3.776 2.304-6.752 5.472-8.928 9.504C1.056 38.911 0 43.52 0 48.768c0 5.184 1.12 9.792 3.36 13.824 2.303 4.032 5.44 7.2 9.408 9.504 4.032 2.24 8.64 3.36 13.824 3.36 3.008 0 6.144-.575 9.408-1.727 3.264-1.216 5.952-2.72 8.064-4.512.768-.64 1.12-1.409 1.055-2.305 0-.896-.416-1.728-1.248-2.496-.64-.512-1.407-.736-2.303-.672-.896 0-1.696.287-2.4.863-1.408 1.216-3.296 2.24-5.664 3.073-2.304.768-4.608 1.152-6.912 1.152-3.84 0-7.232-.864-10.176-2.592-2.944-1.728-5.28-4.095-7.008-7.103-1.314-2.376-2.106-5.034-2.383-7.969h38.768c1.024 0 1.854-.287 2.494-.863.64-.64.961-1.472.961-2.496 0-4.992-.993-9.44-2.977-13.344s-4.799-6.945-8.447-9.121c-3.584-2.24-7.808-3.36-12.672-3.36zm108.19 0c-4.927 0-9.28 1.151-13.056 3.455-3.776 2.304-6.752 5.472-8.928 9.504-2.112 3.968-3.168 8.577-3.168 13.825 0 5.184 1.122 9.792 3.362 13.824 2.304 4.032 5.438 7.2 9.406 9.504 4.032 2.24 8.64 3.36 13.824 3.36 3.008 0 6.144-.575 9.408-1.727 3.264-1.216 5.953-2.72 8.065-4.512.768-.64 1.12-1.409 1.056-2.305 0-.896-.416-1.728-1.248-2.496-.64-.512-1.408-.736-2.304-.672-.896 0-1.697.287-2.4.863-1.409 1.216-3.297 2.24-5.665 3.073-2.304.768-4.608 1.152-6.912 1.152-3.84 0-7.232-.864-10.176-2.592-2.944-1.728-5.28-4.095-7.007-7.103-1.315-2.376-2.107-5.034-2.383-7.969h38.767c1.024 0 1.856-.287 2.496-.863.64-.64.96-1.472.96-2.496 0-4.992-.991-9.44-2.975-13.344s-4.801-6.945-8.45-9.121c-3.583-2.24-7.807-3.36-12.671-3.36zm119.821.36c-1.204.016-2.137.728-2.797 2.136l-17.863 39.377-18.713-39.472c-.448-.96-1.088-1.568-1.92-1.824-.832-.32-1.727-.257-2.687.191-.96.448-1.6 1.088-1.92 1.92-.32.832-.257 1.727.191 2.687l21.408 44.354c.014.026.03.049.043.074l-9.547 21.045c-.96 2.112-.351 3.647 1.825 4.607.64.256 1.216.385 1.728.385 1.216 0 2.143-.737 2.783-2.209l31.106-68.351c.96-2.112.352-3.616-1.824-4.512-.66-.28-1.265-.416-1.813-.408zm202.945 0c-1.204.016-2.136.728-2.796 2.136l-17.866 39.38-18.71-39.475c-.449-.96-1.089-1.568-1.92-1.824-.833-.32-1.73-.257-2.69.191s-1.6 1.088-1.92 1.92c-.32.832-.255 1.727.193 2.687l21.409 44.354c.013.026.028.049.043.074l-9.547 21.045c-.96 2.112-.354 3.647 1.822 4.607.64.256 1.216.385 1.728.385 1.216 0 2.146-.737 2.786-2.209l31.103-68.351c.96-2.112.352-3.616-1.824-4.512-.66-.28-1.263-.416-1.81-.408zm-356.773.095a4.018 4.018 0 0 0-1.416.217c-.896.256-1.536.833-1.92 1.729L77.793 64.352 59.328 24.385c-.448-.832-1.088-1.409-1.92-1.729-.832-.32-1.696-.256-2.592.192-.96.448-1.6 1.088-1.92 1.92-.32.832-.288 1.664.096 2.496L74.305 72.48c.768 1.664 1.919 2.497 3.455 2.497 1.664 0 2.88-.833 3.648-2.497l21.024-45.312c.384-.768.415-1.568.095-2.4-.32-.896-.928-1.568-1.824-2.016a3.776 3.776 0 0 0-1.367-.313zm265.678 5.334c-5.647 0-10.448 1.975-14.4 5.928-3.953 3.953-5.93 8.754-5.93 14.4 0 5.647 1.977 10.446 5.93 14.399 3.952 3.953 8.753 5.93 14.4 5.93 5.646 0 10.445-1.977 14.398-5.93 3.953-3.953 5.93-8.752 5.93-14.398 0-5.647-1.977-10.448-5.93-14.4-3.953-3.954-8.752-5.929-14.398-5.929zm-339.862.834c3.584 0 6.655.833 9.215 2.497 2.624 1.664 4.641 3.968 6.049 6.912 1.02 2.133 1.653 4.47 1.9 7.007H7.158c.327-2.407.978-4.615 1.961-6.623 1.536-3.072 3.682-5.473 6.434-7.2 2.752-1.729 5.951-2.593 9.6-2.593zm108.192 0c3.584 0 6.657.833 9.217 2.497 2.624 1.664 4.638 3.968 6.046 6.912 1.021 2.133 1.654 4.47 1.9 7.007H115.35c.326-2.407.98-4.615 1.963-6.623 1.536-3.072 3.68-5.473 6.431-7.2 2.752-1.729 5.952-2.593 9.6-2.593zm155.136.096c3.712 0 7.007.866 9.887 2.594 2.944 1.728 5.248 4.127 6.912 7.2 1.728 3.007 2.592 6.399 2.592 10.175 0 3.84-.864 7.263-2.592 10.271a19.142 19.142 0 0 1-6.912 7.202c-2.88 1.728-6.175 2.591-9.887 2.591-3.648 0-6.944-.863-9.888-2.591-2.944-1.792-5.28-4.194-7.008-7.202-1.728-3.008-2.592-6.431-2.592-10.271 0-3.776.864-7.168 2.592-10.176 1.728-3.072 4.064-5.471 7.008-7.2 2.944-1.727 6.24-2.593 9.888-2.593zm76.534 4.152c4.235 0 7.834 1.483 10.799 4.448 2.964 2.964 4.447 6.563 4.447 10.799 0 4.235-1.483 7.834-4.447 10.798-2.965 2.965-6.564 4.448-10.8 4.448-4.234 0-7.836-1.483-10.8-4.448-2.965-2.964-4.447-6.563-4.447-10.798 0-4.236 1.482-7.835 4.447-10.8 2.964-2.964 6.566-4.447 10.8-4.447zm-34.729 12.706c-.734 0-1.342.238-1.822.718s-.719 1.088-.719 1.823c0 .734.239 1.34.719 1.82s1.088.72 1.822.72h7.623c.734 0 1.34-.24 1.82-.72s.721-1.086.721-1.82c0-.735-.24-1.343-.72-1.823s-1.087-.718-1.82-.718zm61.832 0c-.734 0-1.34.238-1.82.718s-.72 1.088-.72 1.823c0 .734.24 1.34.72 1.82s1.086.72 1.82.72h7.623c.734 0 1.343-.24 1.823-.72s.718-1.086.718-1.82c0-.735-.239-1.343-.718-1.823-.48-.48-1.089-.718-1.823-.718zm-46.289 19.226c-.706 0-1.284.226-1.736.678l-5.422 5.422c-.508.508-.762 1.1-.762 1.777 0 .678.254 1.271.762 1.78a2.49 2.49 0 0 0 1.822.763c.706 0 1.312-.255 1.82-.764l5.336-5.336c.509-.508.764-1.114.764-1.82a2.49 2.49 0 0 0-.764-1.822c-.508-.452-1.114-.678-1.82-.678zm38.285 0c-.706 0-1.284.226-1.736.678-.508.508-.762 1.102-.762 1.78 0 .677.254 1.27.762 1.778l5.422 5.42c.508.509 1.114.764 1.82.764s1.312-.255 1.82-.764a2.85 2.85 0 0 0 .721-1.82c.028-.706-.212-1.314-.72-1.822l-5.506-5.336c-.509-.452-1.115-.678-1.82-.678zm-19.1 7.877c-.733 0-1.342.24-1.822.72s-.718 1.089-.718 1.823v7.623c0 .734.238 1.34.718 1.82s1.089.721 1.823.721 1.34-.24 1.82-.72.72-1.087.72-1.82v-7.624c0-.734-.24-1.342-.72-1.822s-1.086-.72-1.82-.72z" transform="scale(.26458)"/></svg>