<svg width="397.696" height="63.744" viewBox="0 0 105.224 16.866" xmlns="http://www.w3.org/2000/svg"><path style="font-size:96px;line-height:1.25;font-family:'Moon Dance';-inkscape-font-specification:'Moon Dance';white-space:pre;stroke-width:.999999" d="M112.416 0c-.576 0-1.408.16-2.496.48-1.088.32-1.92.671-2.496 1.055a52.61 52.61 0 0 1-2.305.29c-1.152.127-2.432.288-3.84.48-1.344.192-2.558.479-3.646.863-.064.064-.288.16-.672.287-.384.064-.576.225-.576.48 0 .32.287.544.863.672a7.176 7.176 0 0 0 1.535.194h.48c3.073-.384 5.793-.576 8.16-.576.129.448.129 1.12 0 2.015-.127.832-.383 2.752-.767 5.76a216.83 216.83 0 0 1-.863 4.607l-1.633 8.16-2.015 10.08a1402.45 1402.45 0 0 0-2.016 10.08A557.18 557.18 0 0 1 98.4 53.28a710.1 710.1 0 0 1-1.056 4.705c-.256.32-.896.544-1.92.672-.96.064-1.537.096-1.729.096-.256 0-.799.032-1.63.096-.833 0-1.762.063-2.786.191-.96.064-1.792.193-2.496.385-.704.128-1.054.352-1.054.672 0 .32.318.544.958.672.64.128 1.312.193 2.016.193.768.064 1.25.096 1.442.096 1.92 0 3.84-.066 5.76-.194 1.92-.064 3.84-.095 5.76-.095h4.03c1.408.064 2.817.095 4.225.095.192 0 .608-.031 1.248-.095.704 0 1.344-.064 1.92-.192.64-.128.96-.32.96-.576 0-.128-.096-.223-.288-.287l-.192-.098c-1.216-.384-2.656-.64-4.32-.767a196.663 196.663 0 0 1-4.416-.383c-.128 0-.607-.034-1.44-.098-.831-.064-1.247-.19-1.247-.383 0-.64.192-2.272.576-4.896a992.898 992.898 0 0 1 1.726-9.984c.768-3.968 1.6-8.224 2.496-12.768a708.359 708.359 0 0 1 2.786-13.44c.96-4.48 1.887-8.48 2.783-12 .128-.384.607-.607 1.44-.671.895-.128 1.569-.194 2.017-.194.896 0 1.791.034 2.687.098h2.688c.576 0 1.152.032 1.728.096a14.79 14.79 0 0 0 1.631.095c.32 0 .48-.097.48-.289 0-.192-.063-.416-.19-.672-.257-.576-1.026-.992-2.306-1.248a18.51 18.51 0 0 0-3.84-.576 69.053 69.053 0 0 0-2.878-.096h-2.496c0-.128-.032-.383-.096-.767-.064-.448-.385-.672-.961-.672Zm219.232 0c-.576 0-1.408.16-2.496.48-1.088.32-1.92.671-2.496 1.055a52.61 52.61 0 0 1-2.304.29c-1.152.127-2.432.288-3.84.48-1.344.192-2.56.479-3.649.863-.064.064-.288.16-.672.287-.384.064-.576.225-.576.48 0 .32.29.544.865.672a7.176 7.176 0 0 0 1.536.194h.48c3.072-.384 5.792-.576 8.16-.576.128.448.128 1.12 0 2.015-.128.832-.383 2.752-.767 5.76-.128.768-.418 2.303-.866 4.607l-1.63 8.16-2.016 10.08c-.704 3.457-1.378 6.817-2.018 10.08a559.51 559.51 0 0 1-1.726 8.352 710.12 710.12 0 0 1-1.057 4.705c-.256.32-.896.544-1.92.672-.96.064-1.536.096-1.728.096-.256 0-.8.032-1.631.096-.832 0-1.761.063-2.785.191-.96.064-1.792.193-2.496.385-.704.128-1.055.352-1.055.672 0 .32.319.544.959.672.64.128 1.312.193 2.016.193.768.064 1.249.096 1.44.096 1.92 0 3.84-.066 5.76-.194 1.92-.064 3.84-.095 5.76-.095h4.032c1.408.064 2.816.095 4.224.095.192 0 .608-.031 1.248-.095.704 0 1.344-.064 1.92-.192.64-.128.96-.32.96-.576 0-.128-.096-.223-.288-.287l-.191-.098c-1.216-.384-2.657-.64-4.32-.767a196.663 196.663 0 0 1-4.417-.383c-.128 0-.607-.034-1.439-.098-.832-.064-1.248-.19-1.248-.383 0-.64.19-2.272.574-4.896.448-2.688 1.025-6.016 1.729-9.984.768-3.968 1.6-8.224 2.496-12.768a708.359 708.359 0 0 1 2.785-13.44c.96-4.48 1.887-8.48 2.783-12 .128-.384.608-.607 1.44-.671.896-.128 1.567-.194 2.015-.194.896 0 1.794.034 2.69.098h2.687c.576 0 1.153.032 1.729.096a14.79 14.79 0 0 0 1.63.095c.32 0 .481-.097.481-.289 0-.192-.063-.416-.191-.672-.256-.576-1.025-.992-2.305-1.248a18.51 18.51 0 0 0-3.84-.576 69.12 69.12 0 0 0-2.88-.096h-2.495c0-.128-.034-.383-.098-.767-.064-.448-.383-.672-.959-.672ZM189.984.48c-1.344 0-2.273.224-2.785.672-.512.448-.96 1.249-1.344 2.4-.384 1.089-1.055 2.72-2.015 4.895l-2.688 6.05c-.512 1.151-1.312 2.847-2.4 5.087-1.024 2.176-2.272 4.64-3.744 7.393a156.94 156.94 0 0 1-4.608 8.351 164.55 164.55 0 0 1-4.992 7.776c-1.6 2.368-3.169 4.287-4.705 5.76-1.472 1.407-2.783 2.113-3.935 2.113-2.368 0-4.096-2.017-5.184-6.05-1.024-4.095-1.535-9.375-1.535-15.84 0-3.071.095-6.334.287-9.79.256-3.52.543-7.138.863-10.85l.194-1.726c.064-.64.095-1.28.095-1.92v-.865c0-.448-.063-.736-.191-.864-.704-.704-1.536-1.056-2.496-1.056-1.408 0-2.113.64-2.113 1.92v.671c-1.216 2.304-2.657 5.217-4.32 8.737-1.6 3.52-3.297 7.296-5.089 11.328-1.792 3.968-3.52 7.84-5.183 11.615a2250.55 2250.55 0 0 0-4.416 10.08c-1.28 2.88-2.176 4.992-2.688 6.336a89.66 89.66 0 0 0-1.152 2.785l-1.344 3.84c-.384 1.28-.576 2.207-.576 2.783 0 1.088.48 1.633 1.44 1.633s1.568-.513 1.824-1.537c.896-2.752 2.112-6.047 3.648-9.887 1.536-3.904 3.2-8.032 4.992-12.384 1.856-4.352 3.647-8.576 5.375-12.672a817.014 817.014 0 0 0 4.705-10.944 435.99 435.99 0 0 0 3.073-7.103c-.32 2.752-.576 5.63-.768 8.638-.192 3.008-.29 5.984-.29 8.928 0 4.928.288 9.536.864 13.824.576 4.288 1.474 7.746 2.69 10.37 1.28 2.624 2.944 3.935 4.992 3.935 2.112 0 4.319-1.056 6.623-3.168 2.368-2.112 4.8-4.992 7.297-8.64 2.56-3.648 5.151-7.84 7.775-12.577a355.524 355.524 0 0 0 7.776-14.879c-1.664 8-2.497 16.096-2.497 24.288 0 4.032.098 7.392.29 10.08.192 2.688.415 4.64.671 5.855.32 1.6.768 2.817 1.344 3.649.576.832 1.153 1.248 1.729 1.248.512 0 .991-.127 1.44-.383.511-.256.767-.706.767-1.346 0-.32-.032-.576-.096-.768-.768-2.432-1.345-5.183-1.729-8.255a92.682 92.682 0 0 1-.478-9.6c0-4.416.256-8.927.768-13.535.576-4.608 1.342-9.09 2.302-13.442 1.024-4.416 2.209-8.416 3.553-12 .128-.448 0-.703-.385-.767a3.924 3.924 0 0 0-1.248-.192zm114.784.192a.912.912 0 0 0-.768.385 4.34 4.34 0 0 1-.768.767c-.32.256-.928.383-1.824.383h-.576c-3.52 0-7.072-.158-10.656-.478-3.52-.32-7.072-.481-10.656-.481-.704 0-1.537.063-2.497.191-.96.064-1.823.225-2.591.48-.704.257-1.055.705-1.055 1.345 0 .576.319.865.959.865h1.824c.64 0 .96.287.96.863 0 .64-.16 1.92-.48 3.84-.255 1.92-.608 4.16-1.056 6.72a389.893 389.893 0 0 1-1.44 7.585 168.69 168.69 0 0 1-1.343 6.912c-.384 2.048-.705 3.486-.961 4.318-.384.064-.895.13-1.535.194-.64 0-.961.255-.961.767s.224.928.672 1.248c.448.32.672.736.672 1.248h.289c-.32 1.536-.705 3.36-1.153 5.473-.384 2.112-.768 4.256-1.152 6.432a157.045 157.045 0 0 0-.96 5.855c-.191 1.728-.288 3.071-.288 4.031 0 .64.063 1.346.191 2.114.128.768.45 1.152.961 1.152.448 0 1.025-.258 1.729-.77a9.271 9.271 0 0 0 1.92-1.63c.576-.577.863-1.09.863-1.538 0-.64-.095-1.022-.287-1.15a15.237 15.237 0 0 1-.672-.48c-.192-.193-.29-.706-.29-1.538 0-1.92.256-4.416.768-7.488.576-3.136 1.313-6.591 2.21-10.367.831.064 1.727.096 2.687.096h3.072c2.176 0 4.383-.032 6.623-.096 2.24-.128 4.45-.257 6.625-.385.256-.064.864-.127 1.824-.191.96-.064 1.888-.191 2.784-.383.896-.192 1.343-.418 1.343-.674 0-.384-.574-.671-1.726-.863-1.088-.192-2.368-.287-3.84-.287a91.931 91.931 0 0 0-3.938-.098h-9.79c-.96 0-1.985-.032-3.073-.096-1.024-.128-1.535-.352-1.535-.672 0-.256.127-1.151.383-2.687.32-1.536.704-3.424 1.152-5.664a651.032 651.032 0 0 0 1.535-7.104c.576-2.496 1.121-4.831 1.633-7.007.512-2.24.928-4.065 1.248-5.473.384-1.408.64-2.143.768-2.207.448-.32 1.28-.48 2.496-.48a56.586 56.586 0 0 1 2.592-.096c1.152 0 2.624.063 4.416.191 1.856.128 3.649.257 5.377.385 1.792.128 3.135.191 4.03.191.577 0 .898-.031.962-.095-.192.576-.384 1.44-.576 2.591l-.576 3.264c-.128 1.088-.194 1.952-.194 2.592 0 .256.034.577.098.96.128.385.32.575.576.575.32 0 .51-.19.574-.574l.29-.865c.447-1.6.863-3.265 1.247-4.993.448-1.792 1.44-3.198 2.977-4.222.128-.128.255-.225.383-.29.128-.063.193-.224.193-.48 0-.448-.353-.896-1.057-1.344-.64-.512-1.184-.767-1.632-.767zm-272.704.48c-2.624 0-5.249.448-7.873 1.344a28.106 28.106 0 0 0-7.295 3.744c-2.176 1.6-3.937 3.457-5.28 5.569-1.28 2.048-1.92 4.255-1.92 6.623 0 3.072.673 5.792 2.017 8.16a31.07 31.07 0 0 0 4.894 6.336 447.242 447.242 0 0 0 5.858 5.568c1.984 1.728 3.646 3.487 4.99 5.28 1.344 1.727 2.018 3.647 2.018 5.76 0 2.431-.737 4.48-2.21 6.144-1.471 1.6-3.454 2.816-5.95 3.648-2.432.768-5.121 1.152-8.065 1.152-1.408 0-2.943-.128-4.607-.384a21.954 21.954 0 0 1-4.61-1.057c-1.408-.576-2.527-1.311-3.36-2.207-.127-.192-.256-.16-.384.096-.192.192-.287.352-.287.48 0 1.216.672 2.209 2.016 2.977 1.344.768 2.976 1.31 4.896 1.63 1.984.385 3.872.577 5.664.577 3.456 0 6.816-.543 10.08-1.631 3.328-1.024 6.08-2.625 8.256-4.8 2.176-2.24 3.264-5.09 3.264-8.546 0-2.24-.672-4.352-2.016-6.336-1.344-1.984-3.008-3.903-4.992-5.76a485.326 485.326 0 0 0-5.951-5.664c-1.92-1.856-3.553-3.775-4.897-5.76-1.344-1.983-2.015-4.064-2.015-6.24 0-2.816.863-5.344 2.591-7.584 1.728-2.304 3.904-4.095 6.528-5.375 2.688-1.344 5.471-2.015 8.351-2.015 1.856 0 3.105.543 3.745 1.63.704 1.025 1.056 2.56 1.056 4.608 0 .832-.063 1.793-.191 2.881A205.578 205.578 0 0 0 36 15.553c-.064.448.031.798.287 1.054.256.192.514.29.77.29 1.28 0 2.304-.8 3.072-2.4a12.447 12.447 0 0 0 1.15-5.28c0-3.072-.766-5.184-2.302-6.336-1.536-1.152-3.84-1.729-6.913-1.729zm338.463.192c-2.112 0-4.382.031-6.814.095-2.432 0-4.673.032-6.72.096-2.049 0-3.553.034-4.513.098-.448.064-1.185.222-2.209.478-1.024.192-1.535.674-1.535 1.442 0 .512.256.767.768.767h3.457c1.664-.064 3.518-.127 5.566-.191s4.033-.098 5.953-.098c1.728 0 3.264.034 4.608.098 1.344.064 2.176.19 2.496.383 0 .768-.192 2.337-.576 4.705a303.385 303.385 0 0 1-1.535 8.543 765.454 765.454 0 0 1-2.114 10.369 769.687 769.687 0 0 1-2.111 10.558c-.64 3.328-1.216 6.24-1.728 8.737-.512 2.496-.831 4.255-.96 5.28-.447-.065-.737.193-.865.769a32.137 32.137 0 0 1-.383 3.744 12.936 12.936 0 0 1-1.056 3.263l-.096.096v.096c0 .512.256.767.768.767.384 0 .64-.158.767-.478.256-.064.738-.193 1.442-.385a18.599 18.599 0 0 0 2.015-.672c.64-.256.96-.511.96-.767 0-.576.096-1.953.288-4.13.256-2.24.607-4.575 1.055-7.007.32-1.536.736-3.68 1.248-6.432a477.396 477.396 0 0 0 1.824-9.216 749.161 749.161 0 0 1 2.21-10.272c.767-3.52 1.502-6.817 2.206-9.889a412.538 412.538 0 0 1 1.825-7.68c.32-.191.864-.318 1.632-.382.832-.064 1.791-.098 2.88-.098 1.471 0 3.072.034 4.8.098 1.728.064 3.232.096 4.512.096.896 0 1.728-.032 2.496-.096.832-.064 1.472-.13 1.92-.193.448-.064.993-.257 1.633-.577.704-.384 1.054-.863 1.054-1.44 0-.383-.255-.575-.767-.575h-21.504zm-307.84.672c-1.92 0-3.71.128-5.374.384-1.665.256-2.497.833-2.497 1.729 0 .448.193.703.577.767.448 0 .959.032 1.535.096.64.064 1.056.16 1.248.287.192.064.289.256.289.576 0 1.088-.224 2.913-.672 5.473a293.348 293.348 0 0 1-1.729 8.736 611.125 611.125 0 0 1-2.113 10.463c-.768 3.584-1.503 7.105-2.207 10.56a439.196 439.196 0 0 0-1.633 9.12c-.448 2.624-.672 4.61-.672 5.953 0 .32.032.8.096 1.44.128.64.386 1.153.77 1.537.768.64 1.887 1.087 3.36 1.343 1.535.32 3.102.513 4.702.577 1.664.064 3.073.095 4.225.095 2.304 0 4.768-.128 7.392-.384a83.406 83.406 0 0 0 7.584-1.055c2.368-.512 4.288-1.025 5.76-1.537 1.472-.576 2.207-1.153 2.207-1.729 0-.448-.255-.672-.767-.672h-.192c-.64.192-1.664.513-3.072.961-1.408.448-2.944.767-4.608.96-2.112.255-4.128.447-6.048.575-1.92.064-3.711.096-5.375.096h-2.496a663.01 663.01 0 0 0-3.649-.191c-1.216-.128-2.304-.32-3.264-.576-.896-.32-1.377-.736-1.441-1.248l-.191-1.536v-1.632c0-2.432.255-5.153.767-8.16a179.757 179.757 0 0 1 1.729-8.833 273.6 273.6 0 0 1 1.537-7.488c.64-3.008 1.311-6.079 2.015-9.215a485.163 485.163 0 0 1 2.016-8.64c.64-2.624 1.185-4.576 1.633-5.856.064-.32.159-.607.287-.863.128-.32.191-.641.191-.961 0-.512-.223-.833-.671-.961a4.56 4.56 0 0 0-1.249-.191zm195.35 7.443-22.355 13.15-6.377-2.236 9.797-7.035-2.565-3.024-18.08 12.952h-15.978v3.945h18.476l9.797 3.42 1.314 26.168h3.946l1.576-28.076 22.75-16.502zm-42.408.46c-1.315 0-2.444.473-3.387 1.415-.942.942-1.412 2.07-1.412 3.385s.47 2.444 1.412 3.386c.943.943 2.072 1.415 3.387 1.415s2.444-.472 3.387-1.415c.942-.942 1.412-2.071 1.412-3.386s-.47-2.443-1.412-3.385c-.943-.942-2.072-1.414-3.387-1.414z" transform="scale(.26458)"/></svg>