<svg width="442.176" height="69.12" viewBox="0 0 116.992 18.288" xmlns="http://www.w3.org/2000/svg"><path style="font-size:96px;line-height:1.25;font-family:'Bebas Neue';-inkscape-font-specification:'Bebas Neue';white-space:pre;stroke-width:.999999" d="M311.615 0c-5.184 0-9.15 1.472-11.902 4.416-2.752 2.944-4.129 7.104-4.129 12.48v35.329c0 5.376 1.377 9.534 4.129 12.478 2.752 2.944 6.718 4.416 11.902 4.416 5.184 0 9.153-1.472 11.905-4.416 2.752-2.944 4.128-7.102 4.128-12.478V16.896c0-5.376-1.376-9.536-4.128-12.48C320.768 1.472 316.8 0 311.615 0ZM0 .96v67.2h10.56V.96Zm18.432 0v67.2h9.408V19.104h.191L40.703 68.16h10.85V.96h-9.408v40.224h-.194L31.68.96Zm38.209 0v9.6H67.68v57.6h10.56v-57.6h11.04V.96Zm37.726 0v67.2h28.801v-9.6h-18.24V37.92h14.496v-9.6h-14.496V10.56h18.24V.96Zm34.85 0v67.2h10.558v-28.8h3.649c2.432 0 4.128.608 5.088 1.824 1.024 1.216 1.537 3.36 1.537 6.431v12.29c0 2.495.063 4.223.191 5.183s.384 1.984.768 3.072h10.752a11.659 11.659 0 0 1-.96-3.457c-.127-1.216-.193-2.783-.193-4.703V48.191c0-3.968-.542-7.136-1.63-9.504-1.024-2.367-2.817-3.935-5.377-4.703v-.191c4.608-1.856 6.912-6.272 6.912-13.248v-4.129c0-5.248-1.248-9.12-3.744-11.615-2.496-2.56-6.465-3.84-11.905-3.84zm38.687 0v67.2h9.409V19.104h.19l12.673 49.056h10.847V.96h-9.408v40.224h-.191L181.152.96Zm49.153 0-10.946 67.2h9.793l1.92-13.152h12v-.192l1.92 13.344h10.56L231.36.96Zm23.134 0v9.6h11.041v57.6h10.561v-57.6h11.039V.96Zm37.729 0v67.2h10.56V.96Zm56.832 0v67.2h9.408V19.104h.192l12.671 49.056h10.848V.96h-9.406v40.224h-.194L348 .96Zm49.152 0-10.945 67.2h9.793l1.92-13.152h12v-.192l1.92 13.344h10.56L398.207.96Zm30.336 0v67.2h27.936v-9.6H424.8V.96ZM311.615 9.6c3.648 0 5.473 2.209 5.473 6.625v36.671c0 4.416-1.825 6.624-5.473 6.624-3.648 0-5.47-2.208-5.47-6.624V16.225c0-4.416 1.822-6.625 5.47-6.625zm-171.84.96h4.801c1.856 0 3.2.543 4.031 1.631.896 1.088 1.344 2.85 1.344 5.282v5.183c0 2.56-.543 4.385-1.63 5.473-1.025 1.088-2.594 1.63-4.706 1.63h-3.84zm83.905 2.112h.191l4.705 33.217h-9.504zm166.847 0h.194l4.703 33.217h-9.504z" transform="scale(.26458)"/></svg>